<mxfile host="app.diagrams.net" modified="2023-10-04T09:02:02.147Z" agent="Mozilla/5.0 (Windows NT 10.0; Win64; x64) AppleWebKit/537.36 (KHTML, like Gecko) Chrome/117.0.0.0 Safari/537.36" etag="SzvdHBSPQVrehdM_6Ey-" version="22.0.2" type="github">
  <diagram name="Page-1" id="YE2gJYWsG8oICamzGdg5">
    <mxGraphModel dx="1434" dy="790" grid="1" gridSize="10" guides="1" tooltips="1" connect="1" arrows="1" fold="1" page="1" pageScale="1" pageWidth="850" pageHeight="1100" math="0" shadow="0">
      <root>
        <mxCell id="0" />
        <mxCell id="1" parent="0" />
        <mxCell id="RXDF4n9Eeg4B-BZohRdP-1" value="" style="rounded=0;whiteSpace=wrap;html=1;" vertex="1" parent="1">
          <mxGeometry x="245" y="120" width="395" height="580" as="geometry" />
        </mxCell>
        <mxCell id="RXDF4n9Eeg4B-BZohRdP-13" style="edgeStyle=orthogonalEdgeStyle;rounded=0;orthogonalLoop=1;jettySize=auto;html=1;entryX=0.5;entryY=0;entryDx=0;entryDy=0;" edge="1" parent="1" source="RXDF4n9Eeg4B-BZohRdP-6" target="RXDF4n9Eeg4B-BZohRdP-11">
          <mxGeometry relative="1" as="geometry" />
        </mxCell>
        <mxCell id="RXDF4n9Eeg4B-BZohRdP-6" value="START" style="strokeWidth=2;html=1;shape=mxgraph.flowchart.terminator;whiteSpace=wrap;" vertex="1" parent="1">
          <mxGeometry x="390" y="240" width="100" height="60" as="geometry" />
        </mxCell>
        <mxCell id="RXDF4n9Eeg4B-BZohRdP-7" value="END" style="strokeWidth=2;html=1;shape=mxgraph.flowchart.terminator;whiteSpace=wrap;" vertex="1" parent="1">
          <mxGeometry x="390" y="600" width="100" height="60" as="geometry" />
        </mxCell>
        <mxCell id="RXDF4n9Eeg4B-BZohRdP-9" value="&lt;font style=&quot;font-size: 14px;&quot;&gt;FLOWCHART PERPUSTAKAAN DIGITAL&lt;/font&gt;" style="rounded=0;whiteSpace=wrap;html=1;" vertex="1" parent="1">
          <mxGeometry x="245" y="120" width="395" height="90" as="geometry" />
        </mxCell>
        <mxCell id="RXDF4n9Eeg4B-BZohRdP-14" style="edgeStyle=orthogonalEdgeStyle;rounded=0;orthogonalLoop=1;jettySize=auto;html=1;entryX=0.5;entryY=0;entryDx=0;entryDy=0;" edge="1" parent="1" source="RXDF4n9Eeg4B-BZohRdP-11" target="RXDF4n9Eeg4B-BZohRdP-12">
          <mxGeometry relative="1" as="geometry" />
        </mxCell>
        <mxCell id="RXDF4n9Eeg4B-BZohRdP-11" value="&lt;font style=&quot;font-size: 12px;&quot;&gt;NAMA, KELAS, &lt;br&gt;KEPERLUAN, TANGGAL&lt;/font&gt;" style="shape=parallelogram;html=1;strokeWidth=2;perimeter=parallelogramPerimeter;whiteSpace=wrap;rounded=1;arcSize=12;size=0.23;" vertex="1" parent="1">
          <mxGeometry x="340" y="350" width="200" height="70" as="geometry" />
        </mxCell>
        <mxCell id="RXDF4n9Eeg4B-BZohRdP-12" value="NAMA, KELAS, KEPERLUAN. TANGGAL" style="rounded=1;whiteSpace=wrap;html=1;absoluteArcSize=1;arcSize=14;strokeWidth=2;" vertex="1" parent="1">
          <mxGeometry x="365" y="480" width="150" height="60" as="geometry" />
        </mxCell>
        <mxCell id="RXDF4n9Eeg4B-BZohRdP-15" style="edgeStyle=orthogonalEdgeStyle;rounded=0;orthogonalLoop=1;jettySize=auto;html=1;entryX=0.5;entryY=0;entryDx=0;entryDy=0;entryPerimeter=0;" edge="1" parent="1" source="RXDF4n9Eeg4B-BZohRdP-12" target="RXDF4n9Eeg4B-BZohRdP-7">
          <mxGeometry relative="1" as="geometry" />
        </mxCell>
      </root>
    </mxGraphModel>
  </diagram>
</mxfile>
